<svg width="1937" height="710" viewBox="0 0 1937 710" fill="none" xmlns="http://www.w3.org/2000/svg">
<path d="M1103.7 304.852L1103.92 305.077L1109.95 303.669C1121.6 300.931 1132.16 297.011 1142.17 293.994C1149.73 316.746 1158.04 338.767 1165.3 360.748C1145.65 347.352 1121.33 331.457 1109.51 322.274C1107.15 316.387 1105.48 310.553 1103.7 304.852ZM136.763 485.843L136.91 485.83C136.496 485.897 136.31 485.897 136.763 485.843ZM1926.06 651.353L1855.65 643.233L1802.45 534.284L1800.58 530.457L1796.54 528.729L1759.58 512.928L1741.1 505.034L1731.86 501.087L1727.24 499.106L1723.91 497.485C1715.34 492.767 1707.69 482.388 1700.58 471.212C1693.26 459.955 1686.7 447.383 1676.47 435.303L1672.79 430.957L1667.14 431.475C1658.46 432.286 1650.41 435.077 1643.64 437.522C1639.82 438.918 1636.35 440.021 1633.02 440.911C1629.92 432.645 1627.6 423.727 1625.29 414.239C1622.19 401.6 1618.66 387.819 1612.49 374.808L1607.48 364.256L1597.31 369.439C1592.1 372.097 1587.84 376.496 1584.79 380.257L1566.67 329.424L1558.72 307.124L1546.44 327.138L1490.71 417.88L1489.01 420.684V424.246C1489.03 438.864 1490.91 452.327 1491.64 464.912C1482.29 467.358 1472.07 468.846 1461.31 470.946C1457.84 471.624 1454.31 472.381 1450.73 473.324C1448.97 473.763 1447.1 474.295 1445.18 474.893L1439.93 476.647C1432.88 479.265 1426.1 482.508 1419.63 486.162C1398.06 498.602 1380.72 514.921 1363.12 528.875C1353.24 505.671 1344.77 480.94 1333.38 456.606L1330.69 450.825L1324.75 450.081C1309.47 448.14 1295.99 450.241 1284.23 450.041C1284.04 448.274 1283.85 446.519 1283.71 444.486C1283.32 439.117 1282.72 432.605 1281.12 426.332L1279.98 421.867L1276.39 419.355L1188.33 357.891C1179.27 329.743 1168.59 302.871 1160.12 275.854L1156.89 265.567L1147.04 267.88C1133.97 270.936 1122.32 275.415 1111.26 278.511C1095.24 260.903 1079.7 242.669 1064.08 224.25L1038.2 194.135L1024.9 179.211L1018.35 171.955L1012.74 165.151L1007.67 157.775L1003.13 149.868C1000.33 144.379 997.702 138.731 995.353 132.817C990.669 121.002 986.825 108.43 982.981 95.5792C979.124 82.7281 975.267 69.5447 970.435 56.4012C968.046 49.8096 965.31 43.2711 962.307 36.799C959.264 30.3269 955.728 24.041 951.924 17.8746L940.886 0L932.424 19.4164L879.625 140.605L846.645 143.754L839.051 144.485L837.102 152.698C831.243 177.337 828.56 201.538 823.635 224.21C814.066 228.383 803.682 231.811 792.911 235.16C780.286 239.134 767.193 243.001 754.033 249.434L748.894 251.932L747.786 257.58L736.188 316.918L733.866 316.187L726.285 313.822C723.469 313.091 720.679 312.227 716.128 312.108L708.2 311.895L705.531 319.949L671.857 421.149C668.187 423.302 663.996 425.256 659.125 427.249C656.736 428.246 654.187 429.322 651.584 430.492C650.97 428.459 650.369 426.439 649.769 424.379C647.78 417.707 646.058 411.049 642.842 403.328L638.731 393.454L629.121 396.909C623.703 398.862 620.005 401.069 616.295 403.036C615.948 403.222 615.628 403.381 615.281 403.567C611.223 395.128 607.246 386.065 602.321 376.895L598.464 369.732L590.817 371.034C571.891 374.237 554.727 380.058 538.151 383.473C502.328 337.584 469.936 287.854 432.872 241.035L422.475 227.891L414.52 242.643L386.866 293.941L383.369 300.36L380.006 306.167C378.912 307.948 377.791 309.623 376.87 310.686C375.869 312.015 375.348 312.134 375.268 312.24C375.295 312.32 375.001 312.387 373.706 312.334C372.572 312.32 370.597 311.895 368.675 311.457C364.671 310.5 360.146 309.171 355.635 307.921L347.494 305.662L343.116 313.29L299.072 390.198C280.04 397.122 261.408 405.986 244.111 417.521C226.947 428.937 211.291 443.037 197.651 458.958C182.396 460.221 166.74 460.048 150.337 460.792C145.973 460.992 141.248 461.298 136.923 461.683L135.295 461.829L134.895 461.869C136.176 461.656 130.984 462.135 128.622 464.447C127.968 464.979 127.381 465.563 126.887 466.148L126.353 466.866L125.712 467.876C125.312 468.527 124.898 469.378 124.671 469.936C123.577 472.82 123.43 474.069 123.096 475.571C122.549 478.375 122.215 480.793 121.882 483.225C120.654 492.834 119.84 502.043 118.999 511.293L116.503 538.67L115.742 545.115C115.622 546.138 115.395 547.188 115.502 546.936C115.595 546.856 114.915 548.81 114.661 549.66L112.633 555.813C112.593 555.933 112.566 555.986 112.512 556.092L108.135 558.671L102.502 562.405C99.3793 564.412 95.8825 566.246 92.1988 568C84.7781 571.522 76.6231 574.618 68.0679 578.738L63.0232 581.17L61.755 586.964L52.7059 628.494L8.76884 642.675L3.29691 644.442L1.85537 650.064L1.84201 650.103C-0.987483 671.779 1.85518 690.424 0 710C7.82114 695.116 13.0664 678.092 20.0868 664.137L21.8887 663.553L85.0452 693.149L74.7947 633.678L82.4289 598.646L161.361 672.098L129.65 572.173C130.437 571.229 131.171 570.273 131.545 569.435C132.759 567.216 133.28 565.674 133.76 564.385L136.043 557.475C136.456 556.119 136.603 555.933 137.23 553.621C137.804 551.122 137.938 549.886 138.125 548.624L138.966 541.328L141.515 513.565C142.342 504.449 143.156 495.266 144.277 486.574C144.331 486.123 144.411 485.737 144.478 485.285C144.905 485.258 145.359 485.232 145.786 485.206L211.772 588.892L221.448 467.132C231.952 456.075 243.577 446.267 256.122 437.908C272.833 426.758 291.117 418.146 310.15 411.527L314.127 410.146L316.289 406.358L358.064 333.451C359.118 333.743 360.226 334.022 361.334 334.315L385.612 414.438L389.162 331.138C391.017 329.676 392.619 328.122 393.74 326.713C395.915 324.122 397.437 321.729 398.892 319.39C400.32 317.078 401.614 314.819 402.829 312.613L406.299 306.247L420.927 279.096C417.564 303.217 415.909 335.338 409.342 344.455C414.494 353.399 421.034 362.077 426.185 371.007C417.11 388.815 407.901 411.209 398.825 429.017C408.902 465.776 423.663 506.947 433.74 543.707C445.285 521.925 458.084 496.063 469.629 474.282C465.358 447.915 463.289 418.412 459.018 392.045C469.335 380.616 479.639 369.187 489.942 357.771C501.34 373.479 512.872 389.121 524.991 404.431L526.432 406.251L496.99 458.121C528.194 440.366 559.372 422.611 590.576 404.856C593.646 411.435 596.809 418.265 600.52 425.163L605.111 433.708L613.759 430.585C617.91 429.083 621.06 427.449 623.969 425.867V524.224L674.967 446.387C678.998 444.553 683.175 442.426 687.339 439.502L690.476 437.296L691.677 433.668L722.254 341.77L766.272 524.224L850.369 581.369L810.796 491.133L868.026 507.851L756.448 331.418L768.127 271.667L844.95 317.689L853.532 186.587C854.666 179.902 855.934 173.337 857.296 166.892L888.54 163.901L894.653 163.317L897.309 157.23L941.794 55.1122C941.553 101.892 942.821 170.241 942.034 209.1C960.305 229.778 980.219 254.324 998.503 274.99C994.059 279.548 991.029 286.937 986.585 291.496C988.707 302.26 993.819 313.171 995.954 323.949C1014.71 341.491 1034.59 360.921 1053.34 378.463C1086.5 371.924 1135.59 375.566 1173.53 376.323L1260.04 436.725C1260.54 439.689 1260.91 442.771 1261.17 446.426C1261.55 451.795 1262.15 458.307 1263.75 464.593L1265.77 472.474L1273.2 473.431C1286.82 475.158 1299 473.603 1309.81 473.364L1308.36 636.96L1363.8 557.98L1364.95 557.156C1388.59 540.198 1408.14 519.931 1430.31 507.373C1435.83 504.263 1441.48 501.552 1447.28 499.399L1451.77 497.91L1456.08 496.701C1459.1 495.904 1462.23 495.226 1465.44 494.601C1478.24 492.036 1492.4 490.442 1506.92 485.259L1514.58 482.521L1514.57 473.869C1514.54 457.058 1512.04 441.788 1511.75 427.621L1553.34 359.871L1553.6 360.615C1549 401.972 1543.26 459.929 1538.92 497.459C1557.42 521.739 1575.75 548.026 1594.26 572.306C1608.94 539.56 1623.61 497.791 1638.28 464.341C1642.79 463.158 1647.03 461.71 1650.85 460.341C1655.05 458.799 1658.82 457.656 1662.47 456.752C1658.12 490.734 1647.89 533.208 1651.37 565.914C1669.8 548.571 1688.66 531.586 1707.2 514.323C1709.2 515.838 1711.08 517.446 1713.38 518.789L1719.1 521.553L1723.72 523.533L1732.97 527.48L1751.44 535.387L1779.55 547.401C1768.83 559.747 1758.1 572.107 1747.38 584.453C1769.7 595.045 1795.33 607.311 1817.84 617.996L1838.43 660.177L1841.17 665.772L1847.19 666.463L1918.19 674.65L1933.54 710L1936.49 661.015L1937 652.655L1926.64 651.419L1926.06 651.353Z" fill="#F3F3F3"/>
<path d="M1151.01 501.623C1118.65 497.089 1043.22 451.436 1014.75 442L912 549.576L1020.45 472.055C1028.46 494.763 1040.91 522.189 1037.4 532.597C1048.42 538.616 1061.06 543.846 1072.07 549.865C1069.57 569.8 1069.19 593.967 1066.67 613.903C1097.93 643.247 1137.32 674.668 1168.57 704C1172.2 679.439 1175.37 650.633 1179 626.058C1160.34 603.81 1142.86 577.79 1124.18 555.529C1133.13 537.564 1142.07 519.6 1151.01 501.623Z" fill="#F3F3F3"/>
<path d="M1474.41 575L1426 649.427L1482.09 597.345L1556.86 694L1572 638.535L1523.74 613.957L1474.41 575Z" fill="#F3F3F3"/>
</svg>
