<svg width="685" height="215" viewBox="0 0 685 215" fill="none" xmlns="http://www.w3.org/2000/svg">
<path d="M664.716 124.934C664.107 124.9 664.39 123.621 665.543 123.772C666.298 123.856 665.717 124.984 664.716 124.934ZM661.844 129.882C661.628 129.528 661.802 129.158 662.41 129.444C662.223 129.882 662.119 130.319 661.844 129.882ZM657.985 62.4911C658.295 61.3802 658.533 60.7238 660.846 61.5317C661.305 61.7 661.468 62.4574 660.718 62.6257C660.587 62.6425 658.762 62.8951 658.666 62.8446C658.418 62.7605 657.97 62.5416 657.985 62.4911V62.4911ZM650.018 139.863C650.001 140.014 649.652 140.115 649.452 140.25C648.125 138.886 650.174 138.718 650.018 139.863ZM652.245 151.207C653.123 150.904 653.636 151.493 653.481 151.779C653.292 152.115 653.065 152.435 652.913 152.671C651.034 152.772 651.806 151.375 652.245 151.207V151.207ZM645.318 147.689C645.02 148.328 643.896 148.446 643.535 147.874C643.717 147.436 643.525 146.999 645.03 147.066C645.139 147.083 645.382 147.537 645.318 147.689V147.689ZM627.319 35.0568C627.086 35.3429 626.254 34.8044 627.017 34.5688C627.201 34.5014 627.506 34.838 627.319 35.0568ZM623.505 35.0905C623.18 34.7202 623.815 33.9122 624.474 34.434C625.192 35.0062 624.036 35.73 623.505 35.0905ZM583.928 187.982C586.159 186.854 588.788 187.124 588.705 187.595C588.243 190.237 585.893 188.689 583.419 189.631C582.386 190.035 581.284 190.271 580.195 190.49C580.003 190.523 579.715 190.237 579.523 190.035C579.368 189.884 579.711 188.941 579.917 188.874C581.484 188.335 581.777 189.059 583.928 187.982V187.982ZM579.487 186.989C580.059 186.787 580.227 187.561 579.826 187.679C579.282 187.847 579.058 187.157 579.487 186.989ZM546.27 204.863C546.008 204.358 546.891 203.803 547.294 203.921C549.402 204.543 547.185 206.631 546.27 204.863ZM544.701 35.1579C542.707 35.6628 539.767 36.4369 538.28 35.0231C537.335 34.131 541.848 33.5589 544.871 34.1648C545.226 34.2321 544.921 35.0905 544.701 35.1579ZM540.252 205.318C540.618 204.156 542.136 204.443 542.181 204.897C542.304 206.193 539.809 206.748 540.252 205.318ZM535.217 36.0835C529.703 38.7428 532.569 32.1282 535.747 35.0905C535.587 35.4102 535.491 35.9489 535.217 36.0835ZM524.641 38.1368C523.099 37.7665 522.775 37.1102 521.412 37.9349C520.286 38.625 519.181 37.413 519.002 37.0428C517.057 39.3318 515.59 38.4566 513.177 38.6249C512.019 38.6923 511.84 37.7834 511.488 36.9756C510.506 34.6866 515.371 38.7596 516.816 35.2083C517.03 34.6697 517.145 34.7706 524.096 34.3498C525.348 34.8043 525.522 36.033 526.295 36.6894C526.848 37.1607 526.144 38.4902 524.641 38.1368V38.1368ZM524.577 201.497C520.922 203.079 518.938 201.127 519.45 200.353C521.252 197.71 526.346 200.723 524.577 201.497ZM517.201 202.002C515.055 204.409 511.384 204.342 512.069 202.255C512.774 200.117 517.054 198.383 517.177 200.353C517.214 200.925 517.196 201.497 517.201 202.002ZM510.172 203.988C508.79 205.335 506.642 204.207 505.342 203.769C499.17 209.155 500.514 204.83 492.928 207.136C492.356 207.321 491.77 207.438 491.268 207.119C489.787 206.21 489.648 206.967 484.29 207.842C483.375 207.994 482.47 206.21 480.786 207.708C480.362 208.078 477.974 208.768 477.301 207.523C476.164 205.419 475.097 205.789 474.632 205.503C473.388 204.796 472.14 204.156 470.658 204.661C470.104 204.846 470.104 202.591 472.812 202.759C474.576 202.877 474.302 202.928 472.922 201.009C474.485 198.417 474.905 200.168 483.398 198.754C484.151 198.619 487.092 198.064 486.969 199.073C486.598 202.103 480.343 202.423 485.478 202.372C488.551 202.339 487.156 206.597 493.32 201.564C492.837 200.369 490.142 200.824 490.857 199.461C491.615 198.013 499.956 198.333 497.907 200.016C494.569 202.776 499.941 200.521 502.498 201.665C505.302 202.911 507.378 201.413 510.089 202.507C510.511 202.675 510.656 203.517 510.172 203.988V203.988ZM473.319 160.665L473.1 160.649C473.255 160.396 473.2 160.396 473.319 160.665ZM473.223 35.2251C473.658 35.2756 473.941 36.2685 473.584 36.5378C471.993 37.6992 470.328 36.639 470.274 36.1677C470.224 35.7133 471.846 35.0568 473.223 35.2251V35.2251ZM481.518 38.1874C482.534 37.733 483.319 38.423 484.6 38.5408C482.716 39.7863 480.461 38.6418 481.518 38.1874ZM493.504 28.3918C493.942 29.1492 492.771 30.159 491.212 29.5363C489.68 28.9135 492.245 26.2711 493.504 28.3918ZM502.398 35.4775C503.266 35.2756 504.277 36.0667 504.277 38.3557C504.277 38.9953 503.998 39.113 496.087 38.8774C495.552 38.8606 495.031 38.5409 494.289 38.2716C495.621 36.9419 494.561 37.1943 502.398 35.4775ZM466.336 204.443C465.175 204.914 462.688 204.964 466.606 208.684C462.907 210.872 459.536 209.004 454.776 209.324C452.582 209.475 453.006 207.388 449.673 206.479C449.532 206.429 449.22 206.765 449.276 207.085C449.439 208.011 450.875 208.078 450.701 209.054C450.656 209.307 450.381 209.694 450.207 209.694C448.113 209.677 446.023 210.653 443.92 209.744C442.429 209.105 442.004 210.922 440.76 210.485C437.34 209.273 425.358 210.973 425.296 209.206C425.227 207.455 423.842 206.782 422.803 205.839C421.545 204.712 422.945 209.509 419.991 208.179C411.97 204.544 414.054 204.56 409.683 206.849C409.68 206.917 409.614 207.119 409.391 207.64C407.735 211.495 406.336 207.371 397.959 208.314C396.604 208.465 396.326 208.128 395.878 206.311C394.918 206.058 393.903 205.957 393.015 205.537C391.387 204.796 391.003 203.113 388.543 203.264C386.558 203.382 386.874 205.217 386.311 205.469C385.666 205.755 384.025 205.772 383.92 205.301C383.042 201.295 375.923 201.8 396.778 201.009C396.239 196.381 398.421 200.605 399.545 200.672C401.525 200.773 403.451 201.48 405.48 201.11C409.112 200.454 408.421 202.12 412.194 200.841C414.929 199.915 412.994 203.702 414.727 203.82C418.916 204.123 420.247 204.325 420.581 203.769C421.459 202.288 424.015 202.053 423.649 201.043C423.301 200.1 421.926 200.706 421.344 200.622C419.164 200.319 423.124 196.263 428.312 199.578C431.303 199.006 432.008 197.138 433.348 197.777C438.071 199.999 438.556 198.333 442.799 197.879C444.227 198.754 449.732 197.929 450.757 197.879C452.678 197.811 452.713 198.905 454.776 199.107C456.523 199.259 456.062 203.214 458.896 201.531C460.74 200.42 460.662 202.658 461.69 202.49C462.435 202.372 462.216 201.262 462.317 200.201C462.477 198.585 465.517 199.663 465.778 201.901C465.879 202.759 467.489 203.971 466.336 204.443ZM390.966 207.792C390.651 207.001 392.617 206.378 393.263 208.028C393.615 208.92 391.588 209.374 390.966 207.792ZM411.58 60.7238C411.508 61.8851 409.267 62.0198 409.272 60.7238C409.277 59.1249 411.676 59.2595 411.58 60.7238ZM418.225 201.194C418.774 201.565 417.585 203.012 416.917 202.591C415.829 201.918 416.917 200.336 418.225 201.194ZM416.346 47.7978C416.749 46.8047 417.726 47.2256 416.57 48.0334C416.552 48.0503 416.327 47.8314 416.346 47.7978ZM413.25 195.169C412.693 194.125 414.681 192.61 415.508 194.159C416.066 195.202 414.022 196.633 413.25 195.169ZM412.907 191.904C411.946 191.651 411.503 188.924 417.502 190.776C417.864 190.894 418.225 191.786 418.006 192.291C417.571 193.267 417.205 192.998 412.907 191.904V191.904ZM407.868 41.7554C409.184 41.301 410.611 41.0823 411.585 39.8705C411.74 39.6685 412.138 39.5001 412.34 39.5674C413.899 40.1228 415.239 38.7428 416.826 40.0556C417.726 40.7961 417.371 41.4861 417.05 42.8494C418.545 44.3137 421.317 41.4356 421.806 45.5424C421.865 46.0136 422.166 47.3097 420.968 47.0236C418.889 46.5355 420.279 44.9197 417.307 44.7177C416.167 44.6504 415.271 42.395 413.781 44.1959C411.82 46.569 413.223 46.7879 408.925 44.8524C407.841 44.3811 406.715 42.1594 407.868 41.7554V41.7554ZM414.398 36.8072C414.246 37.0934 414.307 37.0934 414.155 36.8072H414.398ZM419.126 23.4772C420.042 24.5375 416.803 24.9414 416.648 23.6959C416.538 22.8376 417.982 22.1475 419.126 23.4772ZM420.328 36.7903C419.652 37.8843 419.282 37.7666 417.992 37.0934C417.686 36.9251 417.819 36.2181 418.139 36.0666C419.607 35.3597 420.631 36.3022 420.328 36.7903V36.7903ZM429.67 36.7735C426.068 37.5814 425.643 37.8843 425.008 36.824C424.147 35.3597 429.155 34.4509 429.67 36.7735ZM433.182 191.146C433.083 191.567 432.397 191.466 432.456 190.877C432.493 190.54 433.329 190.49 433.182 191.146ZM429.777 42.109C429.977 41.9575 430.265 41.6882 430.444 41.7386C433.841 42.7822 433.727 38.9447 435.012 42.8831C435.263 43.6573 434.761 44.4653 434.03 44.4148C430.545 44.1455 430.81 43.8762 430.092 43.2871C429.753 43.0178 429.561 42.2773 429.777 42.109V42.109ZM437.678 43.1188C444.19 41.3684 442.412 45.9632 437.587 44.482C436.928 44.2801 437.271 43.2198 437.678 43.1188ZM438.025 47.4444C437.876 47.1414 437.999 46.9394 438.337 46.9057C438.511 47.0404 438.689 47.1582 438.868 47.2928C438.497 47.5453 438.231 47.8651 438.025 47.4444V47.4444ZM438.474 191.112C438.236 190.254 441.3 190.321 441.748 190.355C444.427 190.473 440.161 197.172 438.474 191.112ZM448.809 191.685C448.497 192.005 448.598 191.971 448.278 191.819C448.59 191.331 448.48 191.348 448.809 191.685ZM461.717 190.944C464.127 191.803 459.752 195.169 458.92 192.139C458.832 191.819 460.588 190.557 461.717 190.944ZM459.705 38.6249C460.222 37.7329 462.595 38.1032 461.722 39.2814C461.055 40.1734 459.336 39.2645 459.705 38.6249ZM465.792 36.2519C467.059 36.1677 466.816 37.1944 465.696 36.5043C465.682 36.5043 465.751 36.2519 465.792 36.2519ZM378.588 202.827C376.905 203.433 377.262 202.204 374.234 203.685C374.202 203.786 374.148 203.87 374.065 203.921C372.739 206.614 371.149 206.664 370.882 206.109C370.265 204.813 372.776 204.022 373.476 204.039C373.759 204.055 373.942 204.005 374.065 203.921C374.103 203.853 374.135 203.786 374.17 203.719C374.194 203.702 374.212 203.702 374.234 203.685C374.322 203.416 374.247 202.995 374.215 202.49C378.941 200.1 379.552 202.49 378.588 202.827V202.827ZM361.188 205.621C360.808 205.772 360.283 205.89 359.954 205.739C358.49 205.032 356.858 205.436 355.386 204.88C353.958 204.342 353.748 205.688 353.136 206.328C352.093 206.311 351.324 205.991 350.908 204.796C350.639 204.005 349.948 203.382 349.464 202.675C347.759 200.201 361.294 201.531 364.28 201.901C364.654 203.769 364.952 204.14 361.188 205.621ZM305.557 202.81C302.531 204.645 300.419 200.925 302.158 200.302C302.704 200.117 302.753 199.966 305.631 201.548C306.162 201.834 306.24 202.389 305.557 202.81ZM299.912 202.743C299.327 202.625 299.784 202.154 300.116 202.355C300.269 202.44 300.128 202.776 299.912 202.743ZM297.6 11.9313C297.342 11.9144 297.017 11.7966 296.848 11.6114C295.773 10.3828 294.983 10.7194 293.187 9.87787C293.525 7.85817 293.685 6.96609 297.214 8.24524C298.042 8.54819 299.272 11.9649 297.6 11.9313ZM279.539 13.3954C279.151 12.9073 279.358 12.0153 279.928 12.3856C280.732 12.9073 279.879 13.833 279.539 13.3954ZM270.535 8.63232L270.826 8.64925C270.626 9.00269 270.697 9.0026 270.535 8.63232ZM268.204 203.483C267.294 205.183 264.669 202.221 266.524 201.463C267.737 200.959 268.774 202.44 268.204 203.483ZM264.264 12.352C263.428 12.4867 262.492 12.2509 261.732 12.5539C259.73 13.3281 257.815 12.8401 255.86 12.4362C243.35 9.8779 245.729 12.6381 235.922 10.9719C233.63 10.5848 231.4 10.5343 229.203 11.4263C228.682 11.6451 228.114 11.6618 227.55 11.3757C224.714 9.94509 220.877 11.847 218.79 11.1906C215.262 10.0798 216.079 10.7194 213.823 10.9719C213.378 11.0392 212.549 9.9284 213.622 9.4908C215.184 8.86806 215.351 9.50749 218.185 8.76694C219.928 8.29567 221.596 9.77686 223.216 9.08679C226.787 7.57202 231.977 8.68292 237.597 8.22849C239.825 8.04335 241.998 6.25914 244.162 7.67293C244.821 8.11053 247.999 7.53842 250.475 7.6394C254.886 7.82454 258.976 6.54537 260.166 6.3434C262.918 5.88897 261.851 8.0432 265.439 7.168C265.756 7.10068 266.182 7.50465 266.583 7.70662C265.837 11.4262 266.029 12.0659 264.264 12.352V12.352ZM256.435 201.783C254.506 202.154 254.28 200.841 254.713 200.588C257.692 198.838 257.601 201.548 256.435 201.783ZM247.741 201.598C245.517 202.103 243.963 199.764 241.99 201.463C240.387 202.827 238.974 201.026 235.113 200.285C234.141 200.1 234.228 197.761 235.254 198.047C236.072 198.266 236.867 198.602 237.732 198.232C237.981 198.131 238.313 198.013 238.544 198.097C239.885 198.602 241.404 198.232 242.667 199.09C243.98 199.999 245.059 198.552 246.326 198.67C248.882 198.905 250.259 198.501 251.386 199.006C252.965 199.73 249.278 201.867 247.741 201.598V201.598ZM224.282 198.787C224.988 198.282 224.667 198.266 225.477 198.771C224.737 199.259 224.972 199.259 224.282 198.787ZM210.26 9.4908C210.21 8.37996 211.647 8.44721 211.748 9.4234C211.91 10.9887 210.306 10.4838 210.26 9.4908ZM208.201 199.393C207.667 199.713 206.802 198.72 207.598 198.081C208.103 197.677 208.963 198.939 208.201 199.393ZM201.7 198.737C201.233 198.501 200.092 196.835 200.994 196.717C207.033 196.027 207.515 201.699 201.7 198.737ZM197.879 199.747C197.844 199.528 197.82 199.309 197.8 199.09C197.75 198.973 197.733 198.838 197.765 198.686C197.761 198.636 197.758 198.602 197.753 198.552C195.797 199.949 193.781 200.639 191.44 199.41C190.866 199.124 190.072 199.309 189.396 199.175C188.798 199.057 189.267 196.616 192.136 196.482C197.859 196.229 197.084 197.003 197.787 198.585C197.775 198.619 197.772 198.653 197.765 198.686C197.777 198.821 197.788 198.956 197.8 199.09C197.997 199.528 198.66 199.679 198.646 200.218C198.636 200.605 198.051 200.757 197.879 199.747V199.747ZM184.653 200.05C184.58 201.346 180.913 200.992 178.92 199.679C178.593 199.461 178.438 198.956 178.059 198.367C177.076 199.763 176.079 200.487 174.687 200.454C173.488 200.437 171.923 200.74 170.607 199.713C168.777 198.282 167.134 198.383 167.562 197.155C167.919 196.111 169.033 195.842 169.985 195.909C176.197 196.33 185.079 192.375 184.653 200.05V200.05ZM160.231 194.125C159.741 195.32 157.019 194.092 158.309 193.452C159.025 193.099 160.57 193.284 160.231 194.125ZM148.172 192.072C148.609 191.314 148.643 191.18 153.678 192.341C154.131 192.459 154.8 192.896 154.837 193.822C154.889 195.051 146.695 194.63 148.172 192.072V192.072ZM152.894 199.04C150.572 199.696 150.107 198.383 152.237 197.138C153.353 196.482 154.333 198.636 152.894 199.04ZM123.864 200.134C123.623 199.073 125.745 198.939 127.029 199.545C129.597 200.757 124.381 202.406 123.864 200.134ZM93.2567 194.31C93.1033 193.301 99.3535 193.89 99.9636 194.63C101.809 196.902 93.6645 197.054 93.2567 194.31ZM90.0633 194.125C89.6943 193.62 90.6902 192.846 91.2513 193.57C91.5951 194.024 90.6396 194.916 90.0633 194.125ZM85.8824 194.108C85.7156 194.024 85.6634 193.637 86.0088 193.418C87.9468 192.257 88.5079 195.455 85.8824 194.108ZM76.8433 200.639C76.6596 200.437 76.3815 200.285 76.3192 200.067C76.1591 199.494 77.1314 199.477 77.0691 199.915C77.0354 200.167 76.9242 200.386 76.8433 200.639V200.639ZM74.0476 199.242C71.9648 199.949 69.0023 198.198 69.9055 197.458C71.7625 195.943 75.6215 198.703 74.0476 199.242ZM42.2875 144.945C41.9117 144.306 43.2363 143.464 43.7469 144.693C43.998 145.299 42.9717 146.09 42.2875 144.945V144.945ZM38.6538 53.3015C37.0208 53.4698 38.1801 51.5511 37.8606 51.1135C36.9244 49.7838 37.1495 49.5987 38.1431 49.2116C40.8821 48.1849 37.1627 47.2086 41.2074 45.5424C43.0509 44.785 43.5565 47.3266 42.8318 47.8651C37.5405 51.7531 44.7462 52.7124 38.6538 53.3015ZM35.9847 149.49C35.5442 149.759 34.6444 149.002 35.4881 148.345C36.0336 147.908 36.6579 149.086 35.9847 149.49ZM21.1545 152.149C20.1443 152.031 19.9719 150.5 20.939 150.5C22.2209 150.517 22.8218 152.317 21.1545 152.149ZM430.631 14.6914C431.925 14.8093 431.354 16.2567 430.604 16.4587C428.552 16.9973 421.568 18.2259 421.371 16.0716C421.115 13.244 427.308 14.4053 430.631 14.6914ZM431.624 11.258C434.239 10.0799 436.686 13.8331 431.647 12.655C431.487 12.6213 431.386 12.2005 431.303 11.948C431.189 11.6282 431.317 11.3927 431.624 11.258V11.258ZM441.633 10.854C445.534 11.4431 442.791 13.7321 440.555 12.3688C439.792 11.9144 440.814 10.7362 441.633 10.854ZM447.392 11.8302C448.013 12.6717 446.005 13.2945 445.996 12.251C445.991 11.4936 446.842 11.0728 447.392 11.8302ZM453.217 12.9074C452.294 13.3114 452.577 13.3114 452.198 12.9074C453.116 12.5035 452.828 12.5035 453.217 12.9074ZM518.389 17.6538C518.119 18.1587 517.428 18.4278 516.806 17.519C516.163 16.5765 519.021 16.4756 518.389 17.6538ZM664.702 83.8158C665.108 83.6643 665.727 84.2197 665.497 84.4553C664.734 85.28 663.929 84.1356 664.702 83.8158ZM667.528 83.395C667.916 82.8228 668.411 83.496 668.017 83.7316C667.756 83.8663 667.432 83.5297 667.528 83.395ZM671.502 83.8158C671.844 84.1692 671.844 84.0178 671.51 84.3881C671.209 84.2366 671.182 84.3375 671.502 83.8158ZM684.882 101.118C684.631 100.31 684.09 100.663 683.569 100.579C678.6 99.7714 677.867 100.478 676.623 99.0982C674.277 98.6774 671.977 97.6844 669.53 98.4249C668.035 98.8794 667.08 97.0112 669.274 96.5063C669.37 96.4895 672.878 95.934 673.906 95.732C675.155 95.4964 674.894 93.1233 674.543 92.6857C672.019 89.4878 671.027 90.4977 668.062 90.6997C666.434 90.8175 666.421 92.3996 665.361 92.5511C664.468 92.6857 661.834 93.0223 661.895 92.0966C662.146 88.2592 663.064 89.774 664.102 87.6701C665.498 84.8762 666.303 89.5551 667.963 87.6532C668.662 86.8453 669.316 86.8285 670.152 87.1315C671.899 85.3979 673.861 88.3433 674.798 86.3741C675.526 84.8425 677.282 84.3713 677.941 82.7892C678.168 82.2506 680.153 81.8971 680.999 81.3753C688.535 76.73 680.693 79.1705 677.496 79.019C675.073 78.9012 672.654 78.8844 670.267 79.423C667.336 80.0794 664.331 80.1131 661.382 80.6012C658.127 81.1566 657.956 79.2209 658.735 79.1199C664.641 78.3962 666.207 78.6151 667.387 77.3359C669.513 75.0301 676.362 73.9192 679.44 73.7173C679.889 73.7004 682.005 73.4816 682.192 73.0103C682.654 71.8322 680.738 72.8421 680.131 72.4886C677.546 70.9739 676.636 73.7846 675.526 71.6976C675.019 70.7382 674.387 71.0243 666.352 71.2094C664.739 71.2431 664.98 68.2978 666.527 68.1126C670.263 67.6919 670.843 66.8335 671.488 66.0425C672.516 64.7633 674.304 67.7423 675.073 65.4365C675.334 64.6622 676.047 63.989 675.699 63.0297C673.541 61.5149 673.157 62.5753 672.132 62.6931C671.36 62.7941 671.429 61.6495 671.803 61.4475C673.001 60.8079 673.967 61.5149 675.448 60.4546C677.666 58.8725 670.898 57.4418 668.827 57.6101C667.203 57.7279 662.68 57.4082 661.628 56.9538C661.14 56.735 661.281 55.9776 661.542 55.8766C662.941 55.3043 661.081 55.6577 674.693 54.631C676.948 54.4627 676.468 52.645 674.638 52.2747C671.83 51.7025 669.463 52.544 666.719 50.8441C665.612 50.154 664.281 50.0362 663.229 49.161C662.031 48.168 660.454 48.6562 659.104 48.2018C652.026 45.8623 657.372 46.0137 657.874 45.4247C659.091 44.0109 659.814 44.1455 669.938 43.0347C669.586 42.1763 669.311 41.5029 669.036 40.8297C667.414 40.1565 665.519 40.4426 664.262 38.9783C662.823 39.6179 664.006 40.2406 660.344 40.2406C656.475 40.2406 656.836 40.2913 656.617 39.4497C656.452 38.8101 657.377 39.1971 658.602 38.2209C657.052 37.1942 654.65 38.0863 653.393 37.1269C652.126 36.1676 651.482 36.5715 649.273 36.4032C647.047 36.2349 646.791 34.0806 652.24 34.6192C654.519 34.8549 666.824 34.2152 665.439 32.2797C664.574 31.0847 620.541 30.6977 619.577 29.9403C616.513 27.5166 624.836 28.7283 628.365 27.7016C628.389 27.0789 628.864 27.6512 625.952 24.8404C623.001 24.6721 622.956 24.6048 621.159 26.1869C620.116 27.1126 619.038 27.6343 617.666 27.4492C615.438 27.1294 613.527 27.8869 613.527 27.8869C613.522 28.3918 613.682 29.5868 612.992 29.6204C612.191 29.6541 612.511 28.4255 612.562 27.9206C612.562 27.9206 612.082 28.3581 610.139 27.3483C609.146 26.8265 608.561 27.4829 607.345 27.971C604.98 25.884 605.442 27.3987 599.718 26.8938C597.239 26.675 595.186 25.9177 593.365 26.3721C588.28 27.6008 585.225 26.6077 580.635 27.971C574.26 29.8729 560.546 28.6779 556.367 29.3343C554.195 29.6877 555.337 31.4382 553.335 31.3877C550.907 31.3203 548.482 31.1184 546.069 31.556C545.656 31.6401 545.205 31.5727 544.783 31.4886C539.374 30.4282 514.452 35.4103 513.93 30.8828C515.509 28.3918 516.752 27.6008 530.832 26.8266C535.948 26.5404 537.498 25.7662 540.211 26.1701C542.392 26.4899 544.418 25.3286 546.58 25.6147C546.755 25.6484 546.955 25.4127 547.153 25.2949C546.342 24.7226 543.942 25.6652 541.792 24.2346C541.578 24.0831 541.234 24.0831 540.965 24.1167C539.369 24.3187 537.888 23.696 536.396 23.3426C533.479 22.6525 534.079 23.0227 530.04 23.1405C504.597 23.9316 505.388 22.6525 498.831 23.6792C490.902 24.9078 488.629 24.79 485.67 24.4366C483.681 24.2009 480.714 25.3958 474.17 24.083C472.057 23.6454 469.904 24.3693 467.758 23.8812C467.131 23.7465 466.395 24.2178 465.701 24.3019C454.136 25.6652 459.606 23.8642 431.546 24.6721C429.785 25.2107 420.968 25.682 421.037 23.6792C421.093 21.9961 424.632 22.8208 424.907 21.6932C425.377 19.7408 427.06 20.4812 433.246 20.0773C435.944 19.909 438.62 19.4545 441.337 20.1278C447.354 21.5752 463.473 19.3873 466.424 21.2724C467.539 21.9625 468.193 21.6763 472.756 21.4407C492.063 20.4813 560.528 21.3901 554.053 18.3942C553.544 18.1586 552.955 17.8556 552.452 17.9398C548.725 18.5625 545.621 17.9061 544.394 18.5625C542.987 19.3031 542.031 18.1754 540.316 17.8556C539.337 17.6873 538.285 17.7547 537.375 17.4181C536.26 16.9973 533.154 18.0745 533.602 16.8122C534.042 15.5836 534.934 16.2904 539.524 16.1557C548.081 15.9201 547.284 14.1192 551.812 15.1964C553.897 15.6844 556.047 15.9033 558.19 15.4321C558.603 15.3479 559.065 15.2301 559.453 15.3479C563.268 16.3746 566.93 14.3884 571.805 15.331C578.372 16.6101 642.263 15.4993 642.702 15.3647C645.958 14.3716 622.878 12.4867 617.172 13.446C616.545 13.547 596.649 12.3352 594.578 12.1837C591.6 11.9818 590.201 12.5539 583.909 12.8063C572.614 13.2439 538.899 13.6984 530.933 14.7419C529.012 14.9944 531.198 17.8052 529.103 17.8221C517.964 17.9567 526.016 17.9902 528.188 15.8359C530.645 13.4122 504.688 15.2974 503.546 14.0351C503.239 13.6817 503.18 13.0084 503.696 12.9916C527.05 11.8471 520.707 13.2104 524.878 11.763C526.547 11.1907 522.875 10.8204 522.189 10.7194C523.565 9.15415 526.071 9.15415 525.436 8.27895C525.281 8.06014 524.937 7.74029 524.836 7.79079C522.816 8.8343 518.786 8.68292 519.235 6.37709C519.582 4.60985 520.246 5.11473 523.099 4.40784C523.702 4.25636 523.621 3.22968 523.208 3.14552C522.656 3.04454 522.079 3.06134 521.516 3.02768C521.137 2.99402 520.836 2.27026 521.1 1.98413C521.914 1.12576 522.664 1.00798 522.33 0.503052C521.151 -1.26419 512.902 2.08508 510.986 3.46521C507.642 5.85519 507.698 4.2563 507.592 5.68692C508.992 5.08101 510.428 5.98984 511.808 5.1483C512.096 4.96316 512.742 5.04745 513.003 5.28308C514.968 6.99983 516.702 4.84542 517.319 7.2354C517.794 9.06996 515.01 10.2987 513.702 9.32248C512.742 8.61558 511.534 8.76706 510.527 8.06017C509.299 7.20179 508.099 8.46399 506.861 8.59863C505.384 8.78377 505.366 10.0967 502.919 11.0056C501.638 11.4937 501.3 12.5708 501.043 13.8836C496.938 16.0884 494.798 15.7182 490.55 13.8331C488.122 12.756 497.038 11.1738 498.273 10.7699C499.599 10.3491 499.132 8.91851 498.04 8.02647C497.638 7.68986 498.118 6.84822 497.339 6.74724C496.082 11.1738 495.666 8.49768 493.155 8.04324C492.154 7.8581 493.283 6.24231 493.934 5.48492C494.561 4.72754 494.321 3.59993 493.187 3.70091C489.072 4.07119 487.5 4.13845 487.884 5.1483C489.515 9.37285 490.537 8.29567 460.822 8.17786C453.281 8.16103 452.238 8.04321 450.629 7.42047C450.061 7.2185 448.635 8.11056 447.373 8.21155C445.524 8.36303 443.664 8.3462 441.82 8.54817C440.44 8.69965 439.074 9.35612 437.774 8.27895C433.454 8.11064 434.716 9.82731 432.881 8.80063C432.181 8.41352 431.541 7.47105 429.809 7.43739C428.853 7.42056 429.195 8.88476 427.658 9.27187C427.426 9.33919 422.761 9.91157 421.733 10.0799C419.853 10.366 421.381 12.4867 422.158 12.3183C423.361 12.0659 424.33 11.5945 425.918 11.7965C426.11 11.8302 426.484 12.6718 426.219 12.9074C424.669 14.3044 423.127 13.1767 421.304 13.2945C417.901 13.4796 417.312 11.2075 413.891 12.2847C412.199 13.7658 410.589 13.5132 410.502 15.6676C409.747 16.6101 408.901 17.4518 407.602 17.1488C404.954 16.5261 403.241 17.7883 402.248 16.4924C401.869 16.0043 401.338 15.6508 400.762 15.8359C400.674 15.8696 376.115 16.5092 374.788 16.4082C371.637 16.2062 368.523 16.3072 365.486 17.4181C363.557 18.1081 356.885 18.6466 356.181 18.2764C354.658 17.4685 353.107 17.8388 351.663 18.1081C346.766 15.0112 346.03 16.9468 343.537 15.6845C341.323 14.5568 337.912 13.6816 335.246 14.641C332.22 15.7182 331.841 14.5905 328.543 14.6242C325.024 14.6579 323.737 15.1796 321.74 14.5064C312.175 11.2748 314.069 16.324 300.284 12.3856C303.254 7.15118 300.079 9.87791 305.016 7.6394C305.24 7.53842 305.072 7.2186 304.727 7.10078C304.595 7.05029 304.416 6.96607 304.373 6.86508C304.076 6.12452 304.9 6.276 307.689 6.276C305.94 12.3688 311.074 6.54532 313.729 8.16109C314.563 8.68284 315.404 8.14433 316.229 8.31264C319.273 6.88201 321.804 8.88489 321.266 6.88202C321.042 6.04048 321.051 5.21563 319.947 4.89584C318.991 4.62655 318.149 4.15534 317.077 4.37415C313.631 5.13153 313.678 3.04448 311.823 3.58307C309.465 4.23947 310.684 2.67417 306.036 4.22261C304.957 4.57606 303.872 4.9127 302.752 5.26614C297.92 2.32074 292.084 4.67703 285.025 3.97014C283.286 3.785 281.466 6.20875 282.6 6.5117C285.811 7.31958 287.073 6.67994 288.333 8.71648C289.031 9.84414 290.605 8.5987 290.905 9.59172C291.266 10.8035 285.219 11.8303 280.103 10.9214C276.14 10.2145 275.995 10.6183 274.217 10.1976C273.046 9.91143 273.821 7.77394 274.995 7.03339C277.478 5.48495 278.565 6.30976 278.805 4.8623C278.864 4.52569 277.756 3.73461 277.051 4.15538C274.748 5.586 274.561 3.81866 272.675 3.80183C271.689 3.785 260.158 5.06415 249.696 3.54938C244.349 2.79199 248.191 2.74152 243.705 1.81583C242.683 2.893 241.19 2.25346 240.064 2.85938C238.8 3.54944 237.609 3.48215 236.383 2.80891C234.636 1.84956 234.838 4.84538 233.18 3.75137C231.298 2.52272 231.638 5.16514 228.374 4.22261C225.341 3.36424 227.083 3.29694 223.425 3.75137C222.061 1.59702 221.884 0.856568 220.418 0.822906C218.159 0.755583 219.192 0.351514 218.037 1.1089C218.037 1.1089 217.862 0.654591 218.177 2.33768C216.574 2.67429 214.906 2.50589 213.762 3.91968C213.519 4.22263 213.015 4.42471 212.616 4.44154C203.162 5.13161 205.941 4.50877 204.777 2.82568C204.546 2.5059 204.111 2.08508 203.784 2.11874C200.181 2.27022 200.844 -0.355384 196.573 1.19305C195.574 1.5465 195.181 2.85931 194.817 3.63353C194.492 3.09494 194.221 2.60688 193.902 2.15245C193.653 1.799 192.96 1.83269 192.849 2.18614C192.465 3.44846 192.564 4.81172 190.637 4.92953C189.327 4.99686 188.085 4.02074 187.846 2.72476C188.38 1.73174 187.824 1.29413 187.012 1.29413C186.938 1.2773 177.307 1.27724 177.201 1.3109C172.852 2.52272 172.235 0.94068 170.509 1.29413C167.833 1.86638 165.11 1.66432 162.412 1.86629C161.433 1.93361 160.467 2.42174 159.498 2.40491C154.563 2.33758 165.947 1.597 140.771 1.69798C134.929 1.71481 134.614 0.587166 132.271 0.890121C131.828 0.957445 119.136 1.68121 110.924 0.503052C106.103 -0.187013 106.5 2.27036 102.547 0.991211C101.153 0.536778 99.694 0.469429 98.3003 0.789215C95.5822 1.39513 93.2297 0.940713 83.4053 0.570435C80.1007 0.435788 80.6804 3.21289 77.9808 2.59015C75.7766 2.06839 73.4308 2.28718 71.3463 1.07536C70.7363 0.721915 70.7177 0.502979 55.6019 1.61382C52.2603 1.86628 54.0448 4.72753 44.362 4.64337C41.9084 4.62654 44.0249 0.486259 40.4187 3.31384C38.9584 4.44151 37.8052 6.09089 35.8101 6.39384C35.5877 6.41068 35.3784 6.74729 35.2202 6.98293C33.59 9.4234 35.019 8.3463 31.4252 9.07002C29.8434 9.38981 28.075 10.9214 28.3409 12.7391C28.5209 13.9509 29.5571 14.742 26.6053 15.937C26.6053 15.937 24.3016 16.5092 22.9009 16.9468C20.3662 17.7379 21.0782 19.4042 20.7279 20.7675C20.181 22.905 18.4148 20.7506 17.1793 23.393C16.2726 25.3286 12.8786 27.1967 13.794 28.2066C14.8293 29.3511 15.8989 27.6344 17.6865 27.769C19.4672 27.8869 18.8877 29.6373 18.7845 30.2095C20.6606 28.8294 22.7458 27.9878 24.432 26.473C24.9975 25.9681 25.6702 25.7493 26.4215 25.9344C29.4753 26.7255 29.8799 24.7899 34.3459 23.3256C36.5494 22.6019 37.4992 25.0424 38.3771 26.5235C45.341 26.4225 43.2919 27.1631 44.2356 29.0314C48.8832 28.9977 49.6146 28.8462 50.0729 29.2501C50.2971 29.4353 50.5195 30.1927 50.1673 30.2769C46.2072 31.3204 42.8571 30.1422 41.2984 33.3232C40.3361 35.2924 38.3955 34.2152 38.4894 36.1171C38.5735 37.8002 42.9886 40.6952 37.0428 41.2674C35.6472 41.4021 34.9349 40.3249 34.5021 39.2477C33.8916 37.7329 35.8265 37.918 35.8767 36.9586C35.1991 36.622 34.4898 36.8073 33.7949 36.8409C30.5702 37.0261 30.4918 35.5112 27.9342 36.4537C26.2555 37.0764 23.9682 35.6964 23.6627 38.7765C23.5923 39.4834 21.4587 40.0219 22.7362 41.5703C25.5075 44.9533 30.3811 41.7723 32.8468 42.6306C32.6461 42.9841 32.5308 43.5059 32.2304 43.6742C31.3167 44.196 28.3065 44.9028 27.9557 46.7879C30.1297 48.4205 31.2446 47.478 32.8583 47.1919C33.5903 47.0573 34.386 48.2859 33.3232 49.5482C32.7595 50.2383 32.7733 50.7601 33.3156 51.4838C33.7128 52.0055 33.3773 52.7629 32.8209 52.8302C32.2671 52.8976 31.7049 52.8974 31.1421 52.9479C30.8654 54.1934 30.2567 55.0855 28.9133 55.2538C28.4693 55.3043 28.1707 55.6578 29.3601 56.129C31.8253 57.122 30.0961 57.5429 30.7666 59.6972C30.9679 60.3536 30.1136 61.1109 29.4559 60.8921C28.4661 60.5892 26.5335 59.5289 25.528 59.2764C24.7333 59.0576 23.7712 59.9329 23.9133 60.7408C24.1681 62.1882 23.6096 64.6959 21.2917 64.1741C18.7414 63.5851 19.0466 62.592 16.6321 61.1446C14.0279 59.5793 14.0026 59.9664 13.452 55.4221C13.1164 52.645 14.9902 52.9144 19.2239 51.6184C19.9227 51.3996 19.7882 50.0194 19.3971 49.8175C17.7746 48.9086 16.0974 48.1175 14.4795 47.3096C12.3902 47.9155 10.1844 47.8651 8.36052 49.2116C6.96808 50.2551 4.02057 46.8889 3.33556 49.1105C3.07857 49.9352 3.21574 50.9282 2.55618 51.6015C1.95677 52.2074 0.105631 55.6915 1.75068 57.7112C2.51658 58.6369 1.87639 59.2091 1.15834 60.8921C3.87498 61.8347 3.14986 61.5317 4.39181 62.2891C4.7066 62.4742 4.73474 63.3495 4.40192 63.4337C2.44243 63.9049 1.68411 65.3186 1.39241 67.2542C1.04678 69.5432 0.5131 69.8799 0.024743 74.6767C-0.240837 77.3023 1.70079 77.1171 2.53242 80.1972C2.98201 81.8634 3.86875 83.1088 5.36853 83.9167C5.77735 84.1355 5.73219 85.1959 5.36027 85.5156C2.38379 88.0739 1.21463 85.7345 1.04275 91.1035C0.962196 93.6281 1.73602 95.7657 3.61614 97.4992C7.94715 96.2369 7.1135 96.9103 8.69199 98.7785C9.06575 99.2161 9.62675 99.5359 9.87885 100.041C10.261 100.798 9.40919 101.354 9.36858 102.077C9.31819 102.986 9.91575 103.945 8.64363 104.854C7.21933 105.881 5.53081 106.84 7.37841 108.439C8.8477 109.718 8.20363 108.725 8.41596 111.519C8.78265 116.367 3.70781 116.754 8.31114 119.901C9.78127 120.894 7.94901 122.258 6.915 123.267C7.41717 124.042 8.5742 124.479 8.13151 125.943C7.5353 127.913 7.60827 128.956 6.08556 128.72C4.3534 128.434 2.12377 130.909 3.21895 132.44C4.98179 134.914 3.68388 137.001 3.43566 137.91C2.98151 139.593 7.06009 138.482 6.64453 141.327C1.21126 143.363 1.7468 142.404 2.13371 148.817C3.12458 149.675 4.10736 150.533 5.05257 151.358C6.19122 151.207 6.92241 150.617 7.46115 149.658C8.07033 148.547 10.2391 147.234 10.9878 147.958C11.1528 148.126 11.2999 148.598 11.2083 148.699C10.2872 149.81 10.2957 151.122 10.2228 152.452C10.0484 155.65 10.514 154.96 7.98962 155.801C7.59597 155.919 7.30527 156.475 7.5599 156.862C8.87735 158.881 6.61336 160.514 8.5715 161.877C9.54316 161.456 10.7592 161.221 11.5884 160.514C12.8338 159.437 14.3752 159.992 15.625 159.336C17.5461 158.326 18.3582 160.447 19.7624 160.884C21.0228 161.271 21.0452 163.123 19.7082 162.45C18.0675 161.642 17.584 160.649 16.1874 162.769C15.0588 164.486 16.9855 164.402 18.8 164.587C19.403 165.546 20.2432 165.193 21.0814 165.109C21.9359 165.025 22.7394 165.933 22.655 166.809C22.6134 167.246 22.4326 167.667 22.3549 168.105C22.2789 168.525 22.8016 169.047 23.1199 168.896C25.6399 167.633 26.3804 166.91 27.3055 168.088C28.6769 169.838 26.8367 169.788 28.1296 171.807C28.8424 172.918 29.8708 172.329 30.233 172.127C29.8118 171.521 29.7153 170.848 30.0461 170.141C30.5265 169.115 31.045 169.047 32.9482 168.744C36.39 168.206 36.0456 169.653 37.9511 170.478C39.274 171.05 43.4739 173.911 41.1602 174.702C40.8956 174.803 40.5872 174.753 40.3142 174.82C39.8525 174.938 39.6183 175.46 39.871 175.796C41.5461 177.984 41.8814 178.54 43.0694 178.372C47.6514 177.715 44.2558 175.207 43.5649 174.097C43.0239 173.238 45.4944 173.777 46.0117 173.693C47.4121 173.474 48.1451 171.757 52.968 173.339C53.3573 175.595 55.5969 177.681 56.1277 176.301C56.9332 174.214 61.3601 175.578 67.1149 174.5C69.4842 174.063 70.4936 176.571 74.3846 176.049C74.8969 175.982 76.5517 176.789 77.278 176.554C79.2901 175.914 81.2399 176.705 83.2165 176.722C89.8038 176.773 92.9129 181.687 90.488 182.546C87.8844 183.438 86.174 184.128 83.4979 182.663C80.8354 181.216 83.5266 185.895 81.1455 184.969C79.6558 184.397 78.1628 184.044 76.5551 184.262C75.8659 184.346 75.0334 184.397 74.4554 184.077C72.6085 183.067 71.9041 183.774 68.2102 183.168C64.2586 177.833 67.1115 184.044 60.986 182.26C58.0285 181.384 58.4128 182.697 56.1108 181.216C54.2673 180.021 53.1433 183.959 53.2983 185.474C53.6657 189.025 45.855 189.699 50.5431 183.471C49.4764 182.529 48.2547 182.31 46.9824 182.226C42.4341 181.923 44.3232 185.171 40.6411 185.878C39.1312 186.181 39.8778 185.474 37.0329 186.45C38.3141 189.227 35.9037 189.766 35.7753 188.083C35.7547 187.83 35.9042 186.72 36.0451 186.534C35.6418 186.534 35.2261 186.484 34.8446 186.585C33.8203 186.837 33.4774 187.629 34.1396 188.504C35.5842 190.406 33.8021 192.257 35.5452 192.156C37.3104 192.055 39.2617 193.469 39.3266 196.01C39.3512 196.919 38.0822 196.583 37.5986 196.532C35.7793 196.414 37.3969 198.804 38.193 200.285C39.3257 199.73 40.1036 199.023 40.1592 197.609C40.1861 196.919 40.8754 196.717 41.4534 197.121C44.0148 198.956 42.5791 199.477 46.1786 199.461C46.497 199.461 46.9268 199.023 47.0919 198.686C47.2655 198.316 47.1677 197.828 47.2116 197.39C47.2941 196.582 48.3322 196.986 48.4838 197.424C48.6406 197.895 48.5108 199.848 49.3281 199.578C59.6952 196.111 50.6712 195.707 51.229 193.805C51.5677 192.661 54.0095 192.324 55.2801 193.688C57.1573 195.674 57.5786 195 60.0642 196.347C61.168 196.936 59.8721 200.454 61.2506 200.184C62.6459 199.915 63.9839 200.975 65.4415 200.184C66.6717 199.511 67.9103 200.487 69.1438 200.757C69.2399 200.773 69.3764 200.958 69.3764 201.059C69.3915 202.759 70.4077 202.743 72.7551 203.837C75.2036 204.964 75.2828 203.938 79.3676 203.382C81.1775 203.13 81.4353 199.545 83.1929 202.305C84.3574 204.123 85.8824 203.113 86.5717 203.096C90.8081 202.978 89.0135 202.069 92.2624 201.665C94.315 201.413 92.7562 204.224 95.1676 204.173C99.3974 204.089 98.9677 206.732 100.651 206.883C104.758 207.253 104.935 207.034 104.672 206.311C104.121 204.779 103.189 205.065 101.851 204.846C100.466 204.628 103.494 201.615 104.834 202.12C113.153 205.217 112.985 202.574 117.314 204.51C119.297 205.402 121.397 206.092 122.149 204.072C122.632 202.776 121.913 202.49 124.644 202.591C124.995 202.591 125.414 203.281 125.295 202.945C125.566 203.046 125.859 203.248 126.102 203.197C131.338 202.12 129.853 202.069 131.166 201.278C132.352 200.572 134.829 200.975 135.665 201.497C136.277 202.675 137.531 203.399 137.741 204.846C137.8 205.25 138.442 205.301 138.788 205.015C140.015 203.938 140.48 203.079 141.899 204.577C143.97 206.765 142.584 205.032 148.204 206.698C150.538 207.388 148.339 203.719 152.092 203.551C153.654 203.5 155.259 202.002 157.469 203.147C159.129 204.005 159.097 204.611 160.912 204.745C162.473 204.863 164.048 204.779 165.577 205.335C167.038 205.856 168.731 205.402 170.093 206.479C170.347 206.681 175.386 206.731 177.691 206.025C181.217 204.914 186.132 205.587 189.607 205.806C191.821 205.94 191.211 210.283 193.776 206.176C214.303 205.873 205.648 206.546 217.537 207.775C218.268 207.859 218.236 208.482 218.489 209.492C223.334 207.186 229.282 209.004 234.914 208.65C237.971 209.408 240.553 208.903 242.588 209.307C245.603 209.896 249.041 209.323 252.852 209.206C257.269 209.088 253.55 210.03 262.117 210.434C262.336 210.434 266.142 210.889 266.307 210.805C268.61 209.711 271.792 210.805 272.921 208.415C273.745 206.681 276.087 207.556 275.13 205.957C273.686 203.551 272.404 205.267 270.191 203.904C268.186 202.658 269.483 201.632 270.21 201.463C277.476 199.797 267.387 198.653 282.398 198.939C288.849 199.057 288.559 196.027 290.489 197.946C293.829 201.278 298.818 199.006 298.555 203.769C298.235 209.626 296.838 208.044 295.701 208.734C293.069 210.333 292.297 207.59 290.618 209.492C293.182 209.828 295.428 210.872 297.902 210.468C298.785 210.317 299.632 210.502 300.401 210.906C304.248 212.925 315.259 212.858 321.502 214.305C322.05 214.44 322.668 214.558 323.184 214.406C326.876 213.397 334.817 215.063 340.194 213.498C342.568 212.791 377.001 214.289 377.175 214.188C378.57 213.481 381.167 215.736 382.968 214.743C386.957 212.538 388.442 215.416 392.137 214.406C396.97 213.077 428.968 213.75 430.041 213.498C433.366 212.69 432.328 212.824 440.176 212.387C466.469 210.973 449.463 213.716 466.154 211.175C466.712 211.091 467.32 210.973 467.849 211.108C470.662 211.848 473.543 211.512 476.383 211.798C481.034 212.269 478.515 211.899 482.648 211.259C482.648 211.259 523.144 210.401 578.052 204.83C579.162 203.651 578.532 203.147 578.778 202.675C578.508 202.759 578.244 202.928 577.974 202.945C569.948 203.096 574.717 204.005 558.452 204.998C553.197 205.318 553.669 204.544 551.244 204.813C550.28 204.914 549.379 202.978 550.715 202.255C551.839 201.649 552.554 201.699 550.865 200.925C550.403 200.706 547.508 200.033 549.306 198.484C550.056 197.828 553.651 195.573 554.515 197.003C554.889 197.609 555.091 198.333 555.342 198.956C556.028 199.124 556.573 199.04 557.056 198.653C558.686 197.39 554.881 196.061 557.039 195.674C558.635 195.387 558.411 197.66 559.1 196.7C559.353 196.347 559.54 195.842 559.874 195.707C560.92 195.27 561.945 194.731 563.135 194.714C566.444 194.681 569.98 192.779 572.769 192.964C576.248 193.216 578.911 191.449 581.577 191.668C587.266 192.156 586.551 191.298 590.439 190.894C591.513 190.776 592.726 189.009 592.246 188.352C590.434 185.895 589.721 186.551 593.279 185.626C593.668 185.525 593.85 184.818 593.562 184.548C591.568 182.714 591.797 182.815 588.577 183C576.483 183.656 585.267 180.576 591.678 180.475C594.389 180.442 596.969 179.449 599.681 179.28C606.371 178.893 612.988 177.884 619.495 176.116C619.678 175.544 619.828 174.972 620.039 174.433C620.253 173.878 621.077 173.642 621.443 173.995C623.116 175.645 622.76 176.436 624.836 175.291C626.459 174.399 627.214 173.406 628.695 174.467C630.222 175.544 630.419 173.692 633.222 172.699C638.719 170.781 640.995 170.124 643.018 169.552C644.875 169.03 644.061 167.448 646.26 166.927C646.983 166.758 651.061 166.405 659.315 161.574C659.47 161.49 659.485 161.12 659.571 160.867C659.141 160.884 658.671 160.8 658.309 160.952C655.213 162.349 647.509 162.298 647.568 161.154C647.581 160.884 647.608 160.447 647.741 160.396C652.291 158.679 657.994 155.414 659.549 155.313C662.773 155.111 668.758 151.493 664.331 151.745C663.238 151.796 663.243 151.796 663.288 150.5C663.298 150.247 663.28 149.793 663.174 149.759C659.931 148.716 659.598 148.749 658.442 149.927C656.558 151.88 655.474 148.8 649.831 151.072C649.035 151.392 648.048 150.012 649.9 149.456C663.622 145.417 654.724 147.335 652.79 144.373C652.62 144.171 652.392 143.969 652.368 143.75C652.347 143.565 652.584 143.229 652.78 143.145C653.535 142.791 656.104 142.522 655.858 140.149C655.734 138.92 660.563 135.823 661.711 135.571C666.114 134.594 671.753 130.909 675.713 130.336C676.271 130.252 676.889 129.764 676.884 129.192C676.839 126.128 680.543 127.324 676.394 124.176C675.137 124.227 674.798 123.183 674.378 122.274C673.893 121.231 676.569 121.029 677.223 120.053C677.364 119.834 677.351 119.464 677.058 119.379C675.961 119.026 674.813 119.918 673.714 119.211C672.142 118.201 677.218 116.653 678.466 116.097C680.241 115.289 680.57 113.674 678.104 112.95C675.046 112.041 682.01 111.637 681.827 109.988C681.813 109.836 681.776 109.601 681.709 109.584C681.169 109.432 680.62 109.264 680.067 109.23C677.172 109.045 677.177 107.766 677.61 107.329C678.306 106.638 679.243 106.167 679.545 105.073C679.587 104.905 680.017 104.837 680.276 104.787C680.721 104.669 682.769 106.336 683.871 103.828C684.223 103.037 685.367 102.683 684.882 101.118" fill="#004680"/>
</svg>
