<svg width="42" height="41" viewBox="0 0 42 41" fill="none" xmlns="http://www.w3.org/2000/svg">
<path d="M15.2077 29.4355C13.4033 34.8485 6.18596 34.8485 6.18596 34.8485C6.18596 34.8485 6.18596 27.6311 11.599 25.8268" stroke="#E5E5E5" stroke-width="2" stroke-linecap="round" stroke-linejoin="round"/>
<path d="M31.4467 16.8051L20.6207 27.6311L13.4033 20.4137L24.2294 9.58769C28.3287 5.48832 32.4281 5.5283 34.1764 5.78915C34.4456 5.82927 34.6947 5.95481 34.8872 6.14725C35.0796 6.33969 35.2051 6.58886 35.2453 6.85804C35.5061 8.60631 35.5461 12.7057 31.4467 16.8051Z" stroke="#E5E5E5" stroke-width="2" stroke-linecap="round" stroke-linejoin="round"/>
<path d="M29.6424 18.6095V28.9071C29.6424 29.0746 29.6094 29.2405 29.5453 29.3953C29.4812 29.5501 29.3872 29.6908 29.2687 29.8092L24.1107 34.9672C23.9475 35.1305 23.7429 35.2464 23.5189 35.3026C23.2949 35.3587 23.0599 35.3531 22.8388 35.2861C22.6178 35.2192 22.4191 35.0936 22.2639 34.9226C22.1087 34.7516 22.0028 34.5417 21.9575 34.3152L20.6207 27.6312" stroke="#E5E5E5" stroke-width="2" stroke-linecap="round" stroke-linejoin="round"/>
<path d="M22.425 11.3921H12.1275C11.9599 11.3921 11.794 11.4251 11.6392 11.4892C11.4844 11.5533 11.3438 11.6473 11.2253 11.7658L6.06733 16.9237C5.90403 17.087 5.78812 17.2916 5.73195 17.5156C5.67578 17.7396 5.68146 17.9746 5.74838 18.1956C5.8153 18.4167 5.94095 18.6154 6.11194 18.7706C6.28293 18.9258 6.49283 19.0317 6.71928 19.077L13.4033 20.4138" stroke="#E5E5E5" stroke-width="2" stroke-linecap="round" stroke-linejoin="round"/>
</svg>
